<?xml version="1.0" encoding="UTF-8"?>
<svg id="_レイヤー_2" data-name="レイヤー 2" xmlns="http://www.w3.org/2000/svg" viewBox="0 0 450.46 100.41">
  <defs>
    <style>
      .cls-1 {
        fill: #231815;
      }
    </style>
  </defs>
  <g id="_レイヤー_1-2" data-name="レイヤー 1">
    <g>
      <path class="cls-1" d="m22.81,77.71c0,12.55-10.26,22.7-22.81,22.7v-45.51c0-12.55,10.15-22.7,22.81-22.7s22.7,10.15,22.7,22.7-10.15,22.81-22.7,22.81Zm0-31.87c-5.13,0-9.17,4.04-9.17,9.06s4.04,9.17,9.17,9.17,9.06-4.15,9.06-9.17-4.04-9.06-9.06-9.06Z"/>
      <path class="cls-1" d="m77.39,32.2c12.55,0,22.7,10.15,22.7,22.7s-10.15,22.81-22.7,22.81-22.81-10.26-22.81-22.81,10.15-22.7,22.81-22.7Zm0,31.87c5.02,0,9.06-4.15,9.06-9.17s-4.04-9.06-9.06-9.06-9.17,4.04-9.17,9.06,4.04,9.17,9.17,9.17Z"/>
      <path class="cls-1" d="m109.15,77.71v-22.81c0-12.55,10.15-22.7,22.81-22.7s22.7,10.15,22.7,22.7h-31.87v22.81h-13.64Z"/>
      <path class="cls-1" d="m209.24,32.2v13.64h-22.7v13.64h22.7c0,10.04-8.19,18.23-18.23,18.23s-18.12-8.19-18.12-18.23v-13.64h-9.17v-13.64h9.17V.33h13.64v31.87h22.7Z"/>
      <path class="cls-1" d="m263.81,18.55h-22.7v13.64h22.7v13.64h-22.7v31.87h-13.64v-31.87h-9.17v-13.64h9.17v-13.64c0-10.04,8.08-18.23,18.12-18.23s18.23,8.19,18.23,18.23Z"/>
      <path class="cls-1" d="m295.69,32.2c12.55,0,22.7,10.15,22.7,22.7s-10.15,22.81-22.7,22.81-22.81-10.26-22.81-22.81,10.15-22.7,22.81-22.7Zm0,31.87c5.02,0,9.06-4.15,9.06-9.17s-4.04-9.06-9.06-9.06-9.17,4.04-9.17,9.06,4.04,9.17,9.17,9.17Z"/>
      <path class="cls-1" d="m341.09.33v59.16h22.81c0,10.04-8.19,18.23-18.23,18.23s-18.23-8.19-18.23-18.23V.33h13.64Z"/>
      <path class="cls-1" d="m396,0v22.92h-14.19V0h14.19Zm0,31.65v45.84h-14.19V31.65h14.19Z"/>
      <path class="cls-1" d="m427.76,32.2c12.55,0,22.7,10.15,22.7,22.7s-10.15,22.81-22.7,22.81-22.81-10.26-22.81-22.81,10.15-22.7,22.81-22.7Zm0,31.87c5.02,0,9.06-4.15,9.06-9.17s-4.04-9.06-9.06-9.06-9.17,4.04-9.17,9.06,4.04,9.17,9.17,9.17Z"/>
    </g>
  </g>
</svg>