<?xml version="1.0" encoding="UTF-8"?>
<svg id="_レイヤー_2" data-name="レイヤー 2" xmlns="http://www.w3.org/2000/svg" viewBox="0 0 718.88 31.25">
  <defs>
    <style>
      .cls-1 {
        fill: #231815;
      }
    </style>
  </defs>
  <g id="_レイヤー_1-2" data-name="レイヤー 1">
    <g>
      <path class="cls-1" d="m0,2.03C0,1.09.8.28,1.75.28s1.75.8,1.75,1.75v27.19c0,.94-.8,1.75-1.75,1.75s-1.75-.8-1.75-1.75V2.03Z"/>
      <path class="cls-1" d="m24.13,3.92h-5.15c-.9,0-1.65-.76-1.65-1.65s.76-1.65,1.65-1.65h13.79c.9,0,1.65.76,1.65,1.65s-.76,1.65-1.65,1.65h-5.15v25.3c0,.94-.8,1.75-1.75,1.75s-1.75-.8-1.75-1.75V3.92Z"/>
      <path class="cls-1" d="m69.03,2.03c0-.94.8-1.75,1.75-1.75s1.75.8,1.75,1.75v27.19c0,.94-.8,1.75-1.75,1.75s-1.75-.8-1.75-1.75V2.03Z"/>
      <path class="cls-1" d="m103.07,23.75c0,4.39-2.97,7.51-7.36,7.51s-7.36-3.21-7.36-7.51v-1.32c0-.94.8-1.7,1.75-1.7s1.7.76,1.7,1.7v1.37c0,2.41,1.56,4.16,3.92,4.16s3.92-1.79,3.92-4.11v-1.28c0-3.12-1.04-4.34-4.72-5.43-4.11-1.23-7.03-3.21-7.03-8.88v-.76c0-4.39,2.97-7.51,7.36-7.51s7.36,3.21,7.36,7.51v1.32c0,.94-.8,1.7-1.75,1.7s-1.7-.76-1.7-1.7v-1.37c0-2.41-1.56-4.15-3.92-4.15s-3.92,1.75-3.92,4.06v1.13c0,3.07,1.13,4.25,4.72,5.33,4.2,1.23,7.03,3.16,7.03,8.78v1.13Z"/>
      <path class="cls-1" d="m140.89,30.64c-.99,0-1.7-.75-1.7-1.7V2.31c0-.94.71-1.7,1.7-1.7h5.76c4.34,0,7.51,3.21,7.51,7.6v14.82c0,4.39-3.16,7.6-7.51,7.6h-5.76Zm9.77-22.52c0-2.36-1.65-4.2-4.01-4.2h-3.97v23.42h3.97c2.36,0,4.01-1.84,4.01-4.2v-15.01Z"/>
      <path class="cls-1" d="m171.67,30.64c-.99,0-1.7-.75-1.7-1.7V2.31c0-.94.71-1.7,1.7-1.7h9.49c.9,0,1.65.76,1.65,1.65s-.76,1.65-1.65,1.65h-7.7v10.06h6.33c.9,0,1.65.76,1.65,1.65s-.76,1.65-1.65,1.65h-6.33v10.06h7.7c.9,0,1.65.76,1.65,1.65s-.76,1.65-1.65,1.65h-9.49Z"/>
      <path class="cls-1" d="m212.32,23.75c0,4.39-2.97,7.51-7.36,7.51s-7.36-3.21-7.36-7.51v-1.32c0-.94.8-1.7,1.75-1.7s1.7.76,1.7,1.7v1.37c0,2.41,1.56,4.16,3.92,4.16s3.92-1.79,3.92-4.11v-1.28c0-3.12-1.04-4.34-4.72-5.43-4.11-1.23-7.03-3.21-7.03-8.88v-.76c0-4.39,2.97-7.51,7.36-7.51s7.36,3.21,7.36,7.51v1.32c0,.94-.8,1.7-1.75,1.7s-1.7-.76-1.7-1.7v-1.37c0-2.41-1.56-4.15-3.92-4.15s-3.92,1.75-3.92,4.06v1.13c0,3.07,1.13,4.25,4.72,5.33,4.2,1.23,7.03,3.16,7.03,8.78v1.13Z"/>
      <path class="cls-1" d="m227.67,2.03c0-.94.8-1.75,1.75-1.75s1.75.8,1.75,1.75v27.19c0,.94-.8,1.75-1.75,1.75s-1.75-.8-1.75-1.75V2.03Z"/>
      <path class="cls-1" d="m254.39,30.64c-4.06,0-7.36-3.12-7.36-7.18V7.79c0-4.06,3.3-7.18,7.36-7.18h5.76c.9,0,1.65.76,1.65,1.65s-.76,1.65-1.65,1.65h-5.76c-2.12,0-3.87,1.75-3.87,3.87v15.67c0,2.12,1.75,3.87,3.87,3.87h3.87v-9.49h-3.21c-.9,0-1.65-.75-1.65-1.65s.76-1.65,1.65-1.65h5c.99,0,1.7.76,1.7,1.7v12.7c0,.94-.71,1.7-1.7,1.7h-5.67Z"/>
      <path class="cls-1" d="m293.62,2.03c0-.94.8-1.75,1.75-1.75s1.75.8,1.75,1.75v23.56c0,3.21-2.64,5.67-5.85,5.67s-5.85-2.46-5.85-5.67V5.67c0-1.32-1.04-2.36-2.36-2.36s-2.36,1.04-2.36,2.36v23.56c0,.94-.8,1.75-1.75,1.75s-1.75-.8-1.75-1.75V5.67c0-3.21,2.64-5.67,5.85-5.67s5.85,2.46,5.85,5.67v19.92c0,1.32,1.04,2.36,2.36,2.36s2.36-1.04,2.36-2.36V2.03Z"/>
      <path class="cls-1" d="m333.9,2.36c0-.99.75-1.75,1.7-1.75h5.43c4.39,0,7.51,3.26,7.51,7.6v4.58c0,4.34-3.12,7.6-7.51,7.6h-3.64v8.83c0,.94-.8,1.75-1.75,1.75s-1.75-.8-1.75-1.75V2.36Zm11.14,5.81c0-2.36-1.6-4.25-4.01-4.25h-3.64v13.17h3.64c2.41,0,4.01-1.89,4.01-4.25v-4.67Z"/>
      <path class="cls-1" d="m363.41,7.36c0-4.15,3.4-7.36,7.55-7.36s7.55,3.21,7.55,7.36v16.52c0,4.15-3.4,7.37-7.55,7.37s-7.55-3.21-7.55-7.37V7.36Zm11.61,0c0-2.22-1.84-4.06-4.06-4.06s-4.06,1.84-4.06,4.06v16.52c0,2.22,1.84,4.06,4.06,4.06s4.06-1.84,4.06-4.06V7.36Z"/>
      <path class="cls-1" d="m399.38,18.55c-1.13-1.6-.42-3.49,1.37-3.49h1.18c2.41,0,4.01-1.89,4.01-4.25v-2.64c0-2.36-1.6-4.25-4.01-4.25h-4.11v25.3c0,.94-.8,1.75-1.75,1.75s-1.75-.8-1.75-1.75V2.36c0-.99.75-1.75,1.7-1.75h5.9c4.39,0,7.51,3.26,7.51,7.6v2.55c0,3.92-2.55,6.75-6.28,7.27l7.27,10.2c.57.8.28,1.84-.47,2.36-.75.57-1.84.42-2.41-.38l-8.17-11.66Z"/>
      <path class="cls-1" d="m429.79,3.92h-5.15c-.9,0-1.65-.76-1.65-1.65s.76-1.65,1.65-1.65h13.79c.9,0,1.65.76,1.65,1.65s-.76,1.65-1.65,1.65h-5.15v25.3c0,.94-.8,1.75-1.75,1.75s-1.75-.8-1.75-1.75V3.92Z"/>
      <path class="cls-1" d="m453.92,2.31c0-.94.71-1.7,1.7-1.7h9.49c.9,0,1.65.76,1.65,1.65s-.75,1.65-1.65,1.65h-7.7v11.05h6.47c.9,0,1.65.76,1.65,1.65s-.75,1.65-1.65,1.65h-6.47v10.91c0,.94-.8,1.75-1.75,1.75s-1.75-.8-1.75-1.75V2.31Z"/>
      <path class="cls-1" d="m481.07,7.36c0-4.15,3.4-7.36,7.55-7.36s7.55,3.21,7.55,7.36v16.52c0,4.15-3.4,7.37-7.55,7.37s-7.55-3.21-7.55-7.37V7.36Zm11.61,0c0-2.22-1.84-4.06-4.06-4.06s-4.06,1.84-4.06,4.06v16.52c0,2.22,1.84,4.06,4.06,4.06s4.06-1.84,4.06-4.06V7.36Z"/>
      <path class="cls-1" d="m513.69,30.64c-.99,0-1.7-.75-1.7-1.7V2.03c0-.94.8-1.75,1.75-1.75s1.75.8,1.75,1.75v25.3h7.18c.9,0,1.65.76,1.65,1.65s-.75,1.65-1.65,1.65h-8.97Z"/>
      <path class="cls-1" d="m538.15,2.03c0-.94.8-1.75,1.75-1.75s1.75.8,1.75,1.75v27.19c0,.94-.8,1.75-1.75,1.75s-1.75-.8-1.75-1.75V2.03Z"/>
      <path class="cls-1" d="m557.46,7.36c0-4.15,3.4-7.36,7.55-7.36s7.55,3.21,7.55,7.36v16.52c0,4.15-3.4,7.37-7.55,7.37s-7.55-3.21-7.55-7.37V7.36Zm11.61,0c0-2.22-1.84-4.06-4.06-4.06s-4.06,1.84-4.06,4.06v16.52c0,2.22,1.84,4.06,4.06,4.06s4.06-1.84,4.06-4.06V7.36Z"/>
      <path class="cls-1" d="m623.65,23.75c0,4.39-2.97,7.51-7.36,7.51s-7.37-3.21-7.37-7.51v-1.32c0-.94.8-1.7,1.75-1.7s1.7.76,1.7,1.7v1.37c0,2.41,1.56,4.16,3.92,4.16s3.92-1.79,3.92-4.11v-1.28c0-3.12-1.04-4.34-4.72-5.43-4.11-1.23-7.04-3.21-7.04-8.88v-.76c0-4.39,2.97-7.51,7.37-7.51s7.37,3.21,7.37,7.51v1.32c0,.94-.8,1.7-1.75,1.7s-1.7-.76-1.7-1.7v-1.37c0-2.41-1.56-4.15-3.92-4.15s-3.92,1.75-3.92,4.06v1.13c0,3.07,1.13,4.25,4.72,5.33,4.2,1.23,7.03,3.16,7.03,8.78v1.13Z"/>
      <path class="cls-1" d="m639,2.03c0-.94.8-1.75,1.75-1.75s1.75.8,1.75,1.75v27.19c0,.94-.8,1.75-1.75,1.75s-1.75-.8-1.75-1.75V2.03Z"/>
      <path class="cls-1" d="m663.12,3.92h-5.15c-.9,0-1.65-.76-1.65-1.65s.76-1.65,1.65-1.65h13.79c.9,0,1.65.76,1.65,1.65s-.76,1.65-1.65,1.65h-5.15v25.3c0,.94-.8,1.75-1.75,1.75s-1.75-.8-1.75-1.75V3.92Z"/>
      <path class="cls-1" d="m688.95,30.64c-.99,0-1.7-.75-1.7-1.7V2.31c0-.94.71-1.7,1.7-1.7h9.49c.9,0,1.65.76,1.65,1.65s-.75,1.65-1.65,1.65h-7.7v10.06h6.33c.9,0,1.65.76,1.65,1.65s-.75,1.65-1.65,1.65h-6.33v10.06h7.7c.9,0,1.65.76,1.65,1.65s-.75,1.65-1.65,1.65h-9.49Z"/>
      <path class="cls-1" d="m714.16,28.61c0-1.32,1.04-2.36,2.36-2.36s2.36,1.04,2.36,2.36-1.04,2.36-2.36,2.36-2.36-1.04-2.36-2.36Z"/>
    </g>
  </g>
</svg>