<?xml version="1.0" encoding="UTF-8"?>
<svg id="_レイヤー_2" data-name="レイヤー 2" xmlns="http://www.w3.org/2000/svg" viewBox="0 0 622.38 298.67">
  <defs>
    <style>
      .cls-1 {
        fill: #f7f8f8;
      }

      .cls-2 {
        fill: #007981;
      }

      .cls-3 {
        fill: #ef813f;
      }

      .cls-4 {
        fill: #91a225;
      }

      .cls-5 {
        fill: #9fa0a0;
      }

      .cls-6 {
        fill: #980518;
      }

      .cls-7 {
        fill: #465f6c;
      }

      .cls-8 {
        fill: #595757;
      }
    </style>
  </defs>
  <g id="_レイヤー_1-2" data-name="レイヤー 1">
    <g>
      <path class="cls-2" d="m583.86,206.14c-29.96,0-54.24-24.29-54.24-54.24v-10.3c-3.75.71-7.63,1.08-11.59,1.08h0c-34.47,0-62.41-27.94-62.41-62.41V1.04c-74.04,8.72-131.48,71.69-131.48,148.08,0,82.36,66.76,149.12,149.12,149.12,65.78,0,121.61-42.59,141.42-101.7-8.75,6.06-19.37,9.61-30.82,9.61h0Z"/>
      <path class="cls-1" d="m580.44,45.45v34.82c0,30.51-21.89,55.9-50.82,61.33v10.3c0,29.96,24.29,54.24,54.24,54.24h0c11.45,0,22.06-3.56,30.82-9.61,4.99-14.9,7.7-30.84,7.7-47.41,0-40.28-15.98-76.83-41.94-103.66Z"/>
      <path class="cls-6" d="m529.62,11.03v130.57c28.93-5.43,50.82-30.82,50.82-61.33v-34.82c-14.26-14.74-31.53-26.54-50.82-34.42Z"/>
      <path class="cls-4" d="m518.03,142.68h0c3.96,0,7.83-.37,11.59-1.08V11.03c-17.39-7.1-36.41-11.03-56.36-11.03-5.97,0-11.85.36-17.63,1.04v79.23c0,34.47,27.94,62.41,62.41,62.41Z"/>
      <path class="cls-8" d="m497.32,150.38c0-64.31-50.36-116.85-113.8-120.34-36.93,27.19-60.9,70.96-60.9,120.34s23.97,93.15,60.9,120.34c63.43-3.49,113.8-56.03,113.8-120.34Z"/>
      <path class="cls-4" d="m518.03,142.68h0c3.96,0,7.83-.37,11.59-1.08V11.03c-17.39-7.1-36.41-11.03-56.36-11.03-5.97,0-11.85.36-17.63,1.04v79.23c0,34.47,27.94,62.41,62.41,62.41Z"/>
      <rect class="cls-5" y="225.59" width="475.24" height="73.08"/>
      <circle class="cls-1" cx="473.26" cy="262.13" r="36.54"/>
      <polygon class="cls-3" points="388.43 224.9 436.71 224.9 436.71 176.62 388.43 224.9 388.43 224.9"/>
      <polygon class="cls-6" points="388.43 224.9 436.71 176.62 388.43 176.62 388.43 224.9"/>
      <polygon class="cls-1" points="388.43 176.62 388.43 224.9 412.57 200.76 388.43 176.62"/>
      <polygon class="cls-7" points="388.43 224.9 436.71 224.9 412.57 200.76 388.43 224.9"/>
      <circle class="cls-1" cx="389.48" cy="155.36" r="21.26"/>
    </g>
  </g>
</svg>